# xmcd
#
# Track frame offsets:
#	150
#	25495
#	55970
#	84512
#	99642
#	119917
#	141467
#	169995
#	195732
#	220530
#	244130
#	266610
#	297170
#
# Disc length: 4275 seconds
#
# Revision: 20
# Processed by: cddbd v1.5.2PL0 Copyright (c) Steve Scherf et al.
# Submitted via: Jack! The Knife 20 Magnifico
#
DISCID=cc10b10d
DTITLE=Judas Priest - Demolition
DYEAR=2001
DGENRE=Metal
TTITLE0=Machine Man
TTITLE1=One On One
TTITLE2=Hell Is Home
TTITLE3=Jekyll And Hyde
TTITLE4=Close To You
TTITLE5=Devil Digger
TTITLE6=Bloodsuckers
TTITLE7=In Between
TTITLE8=Feed On Me
TTITLE9=Subterfuge
TTITLE10=Lost And Found
TTITLE11=Cyberface
TTITLE12=Metal Messiah
EXTD=Glenn Tipton
EXTT0=Glenn Tipton
EXTT1=Downing, Tipton
EXTT2=Downing, Tipton
EXTT3=Glenn Tipton
EXTT4=Downing, Tipton
EXTT5=Glenn Tipton
EXTT6=Downing, Tipton
EXTT7=Glenn Tipton
EXTT8=Glenn Tipton
EXTT9=Tipton, Tsangarides
EXTT10=Downing, Tipton
EXTT11=Tipton, Travis
EXTT12=Tipton, Tsangarides
PLAYORDER=
